<svg xmlns="http://www.w3.org/2000/svg" viewBox="0 0 24 24" fill="#ffffff">
  <path d="M12.186 24h-.007c-3.581-.024-6.334-1.205-8.184-3.509C2.35 18.44 1.5 15.586 1.5 12.186c0-3.397.849-6.25 2.495-8.305C5.845 1.428 8.599.247 12.179.222h.007c3.579.024 6.334 1.205 8.184 3.509 1.645 2.05 2.495 4.905 2.495 8.305 0 3.397-.849 6.25-2.495 8.305-1.849 2.303-4.603 3.484-8.184 3.509zm-.716-3.496c.98.071 1.871.039 2.786-.09 1.588-.223 2.604-.863 3.028-1.904.351-.859.477-1.164.477-3.51s-.126-2.651-.477-3.51c-.424-1.041-1.44-1.681-3.028-1.904-.915-.129-1.806-.161-2.786-.09-2.293.167-3.693 1.121-3.693 5.504s1.4 5.337 3.693 5.504zm2.476-2.418c-.587.082-1.157.125-1.698.125h-.007c-2.576 0-3.445-1.422-3.445-3.211 0-1.789.869-3.211 3.445-3.211h.007c.541 0 1.111.043 1.698.125 1.028.144 1.732.513 2.019 1.065.221.422.284.91.284 2.021 0 1.111-.063 1.599-.284 2.021-.287.552-.991.921-2.019 1.065z"/>
</svg>