<?xml version="1.0" standalone="no"?>
<!DOCTYPE svg PUBLIC "-//W3C//DTD SVG 20010904//EN"
 "http://www.w3.org/TR/2001/REC-SVG-20010904/DTD/svg10.dtd">
<svg version="1.0" xmlns="http://www.w3.org/2000/svg"
 width="611.000000pt" height="115.000000pt" viewBox="0 0 611.000000 115.000000"
 preserveAspectRatio="xMidYMid meet">

<g transform="translate(0.000000,115.000000) scale(0.100000,-0.100000)"
fill="#000000" stroke="none">
<path d="M675 1030 c332 -5 333 -5 379 -61 29 -34 34 -31 9 7 -9 14 -33 34
-54 45 -36 18 -58 19 -341 17 l-303 -2 310 -6z"/>
<path d="M307 1000 c-19 -16 -40 -43 -46 -58 -8 -20 -11 -131 -9 -384 3 -342
4 -358 24 -384 11 -15 33 -37 48 -48 26 -20 40 -21 339 -22 l312 0 -310 5
c-438 8 -405 -29 -405 463 0 383 1 390 69 435 19 13 29 23 23 23 -6 0 -27 -13
-45 -30z"/>
<path d="M1082 905 c0 -16 2 -22 5 -12 2 9 2 23 0 30 -3 6 -5 -1 -5 -18z"/>
<path d="M3903 883 l-43 -15 0 -289 0 -289 55 0 55 0 0 305 c0 238 -3 305 -12
304 -7 0 -32 -7 -55 -16z"/>
<path d="M479 880 c-70 -21 -109 -71 -109 -140 0 -49 20 -90 56 -119 36 -28
46 -26 29 5 -9 18 -10 35 -4 57 5 18 9 33 9 33 0 1 14 7 31 13 19 7 114 11
239 11 188 0 208 2 223 18 27 30 22 87 -9 111 -25 20 -39 21 -233 20 -113 0
-218 -4 -232 -9z"/>
<path d="M3080 830 l0 -60 50 0 50 0 0 60 0 60 -50 0 -50 0 0 -60z"/>
<path d="M5725 846 c-39 -12 -40 -14 -43 -64 -3 -43 -6 -52 -21 -52 -21 0 -31
-19 -31 -55 0 -17 6 -25 23 -27 21 -3 22 -7 27 -138 3 -74 11 -144 17 -155 27
-47 62 -69 121 -73 66 -5 76 2 86 60 l7 37 -33 -6 c-69 -11 -97 45 -98 194 l0
82 43 3 c41 3 42 4 45 41 l3 37 -45 0 -46 0 0 65 c0 36 -3 65 -7 64 -5 -1 -26
-7 -48 -13z"/>
<path d="M1334 839 c-16 -5 -41 -20 -55 -35 -20 -22 -24 -37 -27 -103 -5 -92
11 -131 61 -158 26 -13 68 -17 212 -21 150 -3 182 -7 193 -20 15 -20 16 -74 0
-90 -9 -9 -73 -12 -229 -12 l-216 0 -7 -37 c-13 -80 -34 -73 235 -73 270 0
295 5 323 65 20 42 21 156 1 194 -25 49 -74 61 -258 61 -190 0 -207 6 -207 70
0 29 5 42 19 50 12 6 102 10 224 10 204 0 205 0 211 23 3 12 6 37 6 55 l0 32
-227 -1 c-126 0 -242 -5 -259 -10z"/>
<path d="M4330 570 l0 -280 279 0 c272 0 279 0 312 23 51 34 60 81 57 277 -3
145 -5 169 -23 200 -33 55 -57 59 -357 59 l-268 1 0 -280z m522 153 c16 -14
18 -33 18 -150 0 -74 -5 -143 -10 -154 -10 -18 -23 -19 -215 -19 l-205 0 0
170 0 170 197 0 c169 0 199 -2 215 -17z"/>
<path d="M2016 717 c-71 -22 -81 -48 -81 -207 0 -125 2 -141 21 -167 35 -47
57 -53 212 -53 230 0 247 14 247 215 0 108 -3 136 -18 158 -35 54 -59 62 -207
64 -85 2 -150 -2 -174 -10z m280 -101 c10 -14 14 -48 14 -110 0 -123 -4 -126
-132 -126 -140 0 -138 -2 -138 125 0 134 3 137 143 133 84 -3 101 -6 113 -22z"/>
<path d="M2605 715 c-22 -8 -41 -15 -42 -15 -1 0 -11 -15 -22 -34 -18 -29 -21
-49 -21 -157 0 -204 22 -222 267 -217 l155 3 25 29 25 29 -31 30 c-29 29 -31
30 -49 14 -15 -14 -40 -17 -135 -17 -152 0 -157 4 -157 125 0 78 2 88 25 110
22 23 31 25 125 25 93 0 136 -9 151 -32 3 -4 18 6 34 22 35 36 29 55 -26 82
-44 23 -263 25 -324 3z"/>
<path d="M3080 510 l0 -220 50 0 50 0 0 220 0 220 -50 0 -50 0 0 -220z"/>
<path d="M3320 702 c0 -17 -3 -37 -6 -46 -5 -14 10 -16 127 -16 74 0 151 -5
172 -11 35 -10 37 -12 37 -53 l0 -44 -37 9 c-53 12 -209 10 -263 -4 -55 -15
-70 -40 -70 -124 0 -51 4 -67 24 -90 l24 -28 157 0 157 0 24 30 c13 17 24 24
24 18 0 -18 37 -53 55 -53 13 0 15 25 15 165 0 264 -5 268 -267 273 l-173 4 0
-30z m314 -228 c24 -9 20 -60 -6 -78 -28 -20 -207 -23 -226 -4 -16 16 -15 75
1 81 18 8 212 8 231 1z"/>
<path d="M5172 721 c-79 -20 -95 -61 -90 -230 l3 -131 33 -32 32 -33 154 -3
c242 -5 260 10 261 218 0 104 -3 131 -18 153 -35 54 -59 62 -207 64 -74 1
-150 -2 -168 -6z m270 -99 c21 -21 24 -186 4 -217 -16 -24 -21 -25 -124 -25
-71 0 -112 4 -120 12 -8 8 -12 49 -12 120 0 103 1 109 23 118 33 14 213 8 229
-8z"/>
<path d="M884 511 c26 -28 17 -79 -17 -105 -27 -20 -41 -21 -242 -21 -195 0
-215 -2 -234 -19 -30 -27 -28 -76 4 -106 25 -23 28 -24 243 -24 214 -1 218 -1
260 24 55 31 72 64 72 136 0 52 -3 59 -39 95 -39 40 -80 57 -47 20z"/>
<path d="M1080 239 c0 -34 -34 -86 -72 -109 -18 -11 -27 -20 -21 -20 26 0 92
71 99 106 3 19 4 38 0 41 -3 4 -6 -5 -6 -18z"/>
</g>
</svg>
